<svg xmlns="http://www.w3.org/2000/svg" width="164.336" height="192.568"><path d="M21.307 151.067l35.699 41.231 50.465-.104 33.053-39.358 8.129-25.78 8.737-6.177 6.595-16.702-4.097-11.464-13.786 5.112.206-15.528-1.996-33.018-18.722-31.979-96.177-2.593-15.767 34.571 6.153 37.164-4.114 11.984-9.483-11.372-6.489 10.411.918 15.343 13.725 12.551z" fill="#ecf0f1" stroke="#cfd6df"/><path d="M43.143.497l-22.697 15.222-8.384 22.913-7.06 22.748 4.523 26.028 5.644 20.223 5.492-21.252.409-23.337 13.267-16.868 5.405-17.476 16.008-3.606-11.617 15.607 51.709.431 22.094-11.768 6.368-3.392 19.211 29.288.686 31.969c1.181 5.013 4.762 22.524 4.762 22.524l6.46-21.83.177-19.932 1.401-23.035-14.014-23.577-12.816-16.196-18.768-1.645-28.853-3.754zm-17.935 77.224l4.895 3.972 10.877-3.972 29.911 5.5 2.719-3.361-31.271-10.084-11.421 2.445zm115.352 2.087l-4.895 3.667-10.877-3.972-26.104 4.584-2.719-3.361 27.464-8.862 11.421 2.445z" fill="#2d3e50"/></svg>
